<svg xmlns="http://www.w3.org/2000/svg" viewBox="0 0 92.56 35"><defs><style>.cls-1{fill:#103768}.cls-2{fill:#1aa4a1}</style></defs><title>Ресурс 1</title><g id="Слой_2" data-name="Слой 2"><g id="Слой_1-2" data-name="Слой 1"><path class="cls-1" d="M75.5 19.06h-2c-.41-6.24-4.1-10.54-8.6-10.54a6.4 6.4 0 0 0-3.06.8c2.72 1.9 4.64 5.18 4.83 9.72h-2c-.66 0-.81.53-.33 1.18l4.82 6.61a1 1 0 0 0 1.73 0l4.88-6.58c.54-.66.39-1.19-.27-1.19z"/><path class="cls-2" d="M54 17h2c.41 6.24 4.1 10.54 8.6 10.54a6.39 6.39 0 0 0 3.06-.8c-2.72-1.92-4.66-5.2-4.83-9.74h2c.66 0 .81-.53.33-1.18l-4.85-6.6a1 1 0 0 0-1.73 0l-4.88 6.57c-.48.65-.33 1.21.3 1.21z"/><path class="cls-1" d="M12.51.37v.81a3.47 3.47 0 0 1-.23 1 4.28 4.28 0 0 1-.5.93 3.45 3.45 0 0 1-.7.74 2.2 2.2 0 0 1-.86.42l-.57.14-.48.18a1.52 1.52 0 0 0-.41.25A2.38 2.38 0 0 0 8 6.77V8.1h3.81a3.76 3.76 0 0 1-2.29 3.5 3.69 3.69 0 0 1-1.46.29H8v13a2.48 2.48 0 0 1-.2 1 2.62 2.62 0 0 1-.55.81 2.66 2.66 0 0 1-.81.55 2.44 2.44 0 0 1-1 .2 2.46 2.46 0 0 1-1-.2 2.58 2.58 0 0 1-1.37-1.35 2.48 2.48 0 0 1-.2-1v-13H0V11a2.87 2.87 0 0 1 .22-1.13 2.82 2.82 0 0 1 .61-.92 3 3 0 0 1 .9-.62 2.66 2.66 0 0 1 1.1-.23V6.77a7.65 7.65 0 0 1 .52-2.89 5.2 5.2 0 0 1 .59-1.16 5.86 5.86 0 0 1 .8-.95A5.67 5.67 0 0 1 7 .48 8.33 8.33 0 0 1 9.55 0h3zM17.75 0v24.9a2.51 2.51 0 0 1-1.54 2.34 2.54 2.54 0 0 1-1.95 0 2.52 2.52 0 0 1-.81-.54 2.64 2.64 0 0 1-.55-.81 2.43 2.43 0 0 1-.2-1V4a3.92 3.92 0 0 1 1.16-2.8 4.09 4.09 0 0 1 1.26-.89A3.86 3.86 0 0 1 16.67 0zM36 8.84l-7.5 21.43c-.09.24-.2.48-.32.74l-.37.8a4.51 4.51 0 0 1-.48.86 5.92 5.92 0 0 1-.64.75 4.35 4.35 0 0 1-.78.67 9.24 9.24 0 0 1-1 .57 3.45 3.45 0 0 1-.56.11l-.9.1-1 .08-1 .05a2.66 2.66 0 0 1-1.26-.24 2.72 2.72 0 0 1-1-.79 3 3 0 0 1-.5-1 4.34 4.34 0 0 1-.16-1.19v-.85h3.66a2.2 2.2 0 0 0 .92-.35 2.06 2.06 0 0 0 .35-.28 4.13 4.13 0 0 0 .3-.34 3.37 3.37 0 0 0 .25-.44q.11-.23.21-.5l.53-1.45L18.3 8.86l1.24-.43A3.5 3.5 0 0 1 21 8.22a3.86 3.86 0 0 1 1.37.35 4 4 0 0 1 1.15.82 3.5 3.5 0 0 1 .78 1.23l2.83 9.5L30 10.63a3.71 3.71 0 0 1 .76-1.24 3.67 3.67 0 0 1 1.14-.83 3.8 3.8 0 0 1 1.39-.35 3.63 3.63 0 0 1 1.47.22z"/><path class="cls-2" d="M52.83 27.22h-1a3.93 3.93 0 0 1-2.18-.63A4.2 4.2 0 0 1 48.17 25a1.48 1.48 0 0 0-.22.23q-.2.23-.53.55t-.74.65a4.66 4.66 0 0 1-.83.54 6.26 6.26 0 0 1-2.84.62 7.6 7.6 0 0 1-1.67-.18 5.78 5.78 0 0 1-1.48-.55 6.24 6.24 0 0 1-1.28-.86 8.48 8.48 0 0 1-1.08-1.15 9.77 9.77 0 0 1-.82-1.42 10 10 0 0 1-.61-1.67 12.15 12.15 0 0 1-.39-1.85 15.53 15.53 0 0 1-.12-2v-.37a16.89 16.89 0 0 1 .12-2.09 12 12 0 0 1 .39-1.9 10.27 10.27 0 0 1 .61-1.67 9.56 9.56 0 0 1 .82-1.43 6.84 6.84 0 0 1 2.36-2A7 7 0 0 1 43 7.71a5.77 5.77 0 0 1 2.6.55 6.25 6.25 0 0 1 2 1.52V4.34a4.15 4.15 0 0 1 .4-1.67A4.26 4.26 0 0 1 50.28.41a4.16 4.16 0 0 1 1.66-.34h.9V27.2zm-5.16-13.38a5.42 5.42 0 0 0-.56-.84 2.79 2.79 0 0 0-.72-.63 3.66 3.66 0 0 0-2-.53 3.2 3.2 0 0 0-1.71.43 3.42 3.42 0 0 0-1.15 1.21 6.55 6.55 0 0 0-.64 1.79 11.14 11.14 0 0 0-.21 2.22v.37q0 .59.05 1.13t.14 1.01a5.86 5.86 0 0 0 .64 1.76A3.31 3.31 0 0 0 42.64 23a3.05 3.05 0 0 0 1.71.44 3.58 3.58 0 0 0 2-.55 2.87 2.87 0 0 0 .72-.62 5 5 0 0 0 .56-.83zm44.86 5.6a5.51 5.51 0 0 1 0 1q0 .53-.11 1.06a10 10 0 0 1-.2 1 4.07 4.07 0 0 1-.28.8 6.78 6.78 0 0 1-1.61 2.13 7.38 7.38 0 0 1-2.41 1.38 8.79 8.79 0 0 1-3 .5 9 9 0 0 1-3.74-.73 7.31 7.31 0 0 1-2.66-2 8.21 8.21 0 0 1-1.6-3 12.56 12.56 0 0 1-.48-3.58v-.53a12.88 12.88 0 0 1 .56-3.68 8.44 8.44 0 0 1 1.6-2.94 7.41 7.41 0 0 1 2.66-2A9 9 0 0 1 85 8.12a9.38 9.38 0 0 1 1.54.12 8.76 8.76 0 0 1 1.45.37A7.84 7.84 0 0 1 90.35 10 6.27 6.27 0 0 1 92 12.16a3.61 3.61 0 0 1 .28.78 10 10 0 0 1 .2 1q.08.53.11 1.07a5.59 5.59 0 0 1 0 1h-1a4.09 4.09 0 0 1-2.22-.63 4.23 4.23 0 0 1-1.53-1.64 4.67 4.67 0 0 0-.32-.47 2.5 2.5 0 0 0-.37-.38 2.68 2.68 0 0 0-1-.57 3.89 3.89 0 0 0-1.24-.2 3.38 3.38 0 0 0-1.79.44A3 3 0 0 0 82 13.71a5 5 0 0 0-.51 1.7c0 .32-.08.65-.11 1s0 .68 0 1V19c0 .34.06.67.11 1a5.19 5.19 0 0 0 .51 1.7 3.16 3.16 0 0 0 1.06 1.17 3.38 3.38 0 0 0 1.79.42 3.89 3.89 0 0 0 1.24-.19 2.38 2.38 0 0 0 .54-.23 2.69 2.69 0 0 0 .43-.32 3.72 3.72 0 0 0 .37-.39 3.87 3.87 0 0 0 .32-.46 4.21 4.21 0 0 1 1.54-1.7 4.09 4.09 0 0 1 2.22-.63h1z"/></g></g></svg>